<?xml version="1.0" standalone="no"?>
<!DOCTYPE svg PUBLIC "-//W3C//DTD SVG 20010904//EN"
 "http://www.w3.org/TR/2001/REC-SVG-20010904/DTD/svg10.dtd">
<svg version="1.0" xmlns="http://www.w3.org/2000/svg"
 width="444.000000pt" height="70.000000pt" viewBox="0 0 444.000000 70.000000"
 preserveAspectRatio="xMidYMid meet">

<g transform="translate(0.000000,70.000000) scale(0.100000,-0.100000)"
fill="#000000" stroke="none">
<path d="M2499 561 c-19 -15 -24 -31 -28 -97 -6 -72 -8 -79 -28 -82 -33 -5
-32 -48 1 -56 22 -5 24 -11 28 -82 3 -65 7 -79 27 -95 13 -10 38 -19 57 -19
29 0 34 3 34 24 0 18 -6 25 -22 28 -21 3 -23 10 -28 76 -4 57 -9 76 -23 84
-18 9 -18 10 0 23 13 10 19 31 23 82 4 58 8 69 28 78 13 6 22 18 22 32 0 19
-5 23 -34 23 -19 0 -44 -8 -57 -19z"/>
<path d="M3470 509 l0 -70 -22 15 c-32 23 -100 20 -130 -4 -38 -29 -51 -71
-46 -146 4 -60 7 -70 36 -95 41 -37 104 -40 139 -7 l23 21 0 -21 c0 -18 6 -22
35 -22 l35 0 0 200 0 200 -35 0 -35 0 0 -71z m-16 -121 c9 -12 16 -41 16 -63
0 -56 -22 -85 -65 -85 -47 0 -69 34 -63 95 3 25 11 52 18 60 19 23 76 19 94
-7z"/>
<path d="M4180 556 c0 -17 7 -26 25 -30 23 -6 25 -10 25 -71 0 -53 4 -68 20
-82 19 -17 19 -17 0 -38 -14 -15 -20 -38 -22 -85 -3 -59 -5 -65 -25 -68 -17
-3 -23 -10 -23 -28 0 -21 4 -24 39 -24 59 0 81 33 81 121 0 65 1 69 25 75 34
8 35 51 3 56 -21 3 -23 9 -28 81 -4 67 -8 82 -29 98 -13 10 -38 19 -57 19 -29
0 -34 -3 -34 -24z"/>
<path d="M2715 460 c-45 -18 -69 -58 -73 -122 -8 -104 39 -158 136 -158 40 0
57 6 81 26 36 30 39 49 10 65 -17 9 -25 7 -43 -10 -32 -30 -81 -28 -102 4 -21
33 -14 113 12 132 26 19 64 16 88 -6 20 -19 22 -19 44 -3 61 47 -68 108 -153
72z"/>
<path d="M3002 454 c-43 -22 -66 -67 -66 -129 0 -94 49 -145 138 -145 58 0 92
16 115 54 40 67 33 149 -18 199 -37 38 -117 48 -169 21z m122 -66 c9 -12 16
-41 16 -63 0 -54 -23 -85 -62 -85 -47 0 -68 25 -68 79 0 62 21 91 65 91 24 0
39 -7 49 -22z"/>
<path d="M3679 455 c-86 -47 -91 -204 -7 -255 50 -30 128 -28 167 6 37 31 38
38 7 52 -19 9 -27 8 -36 -4 -19 -22 -97 -19 -110 5 -24 46 -16 51 79 51 96 0
103 4 94 56 -7 45 -25 74 -55 90 -34 18 -105 17 -139 -1z m103 -47 c9 -7 18
-22 20 -33 3 -18 -3 -20 -54 -23 -61 -3 -72 7 -45 40 22 28 55 34 79 16z"/>
<path d="M3974 461 c-28 -12 -54 -49 -54 -77 0 -35 31 -64 90 -83 41 -13 56
-23 58 -39 6 -36 -59 -41 -99 -6 -13 12 -19 11 -38 -10 l-23 -25 33 -20 c51
-31 142 -29 174 4 14 13 26 32 26 42 4 61 -16 88 -75 104 -72 18 -76 20 -76
34 0 27 36 37 74 21 32 -13 36 -13 52 5 16 18 16 21 1 36 -19 19 -111 28 -143
14z"/>
</g>
</svg>
